<svg width="2560" height="1080" viewBox="0 0 2560 1080" fill="none" xmlns="http://www.w3.org/2000/svg">
<rect width="2560" height="1080" fill="url(#paint0_radial_424_8)" fill-opacity="0.7"/>
<rect width="2560" height="1080" fill="url(#paint1_radial_424_8)" fill-opacity="0.2"/>
<rect width="2560" height="1080" fill="url(#paint2_radial_424_8)" fill-opacity="0.2"/>
<path d="M815.739 538.24C815.739 531.307 817.019 524.533 819.579 517.92C822.245 511.2 826.085 505.12 831.099 499.68C836.112 494.24 842.192 489.92 849.339 486.72C856.592 483.413 864.752 481.76 873.819 481.76C884.699 481.76 894.192 484.053 902.299 488.64C910.405 493.12 916.432 499.093 920.379 506.56L896.539 523.52C895.152 519.787 893.125 516.907 890.459 514.88C887.899 512.853 885.072 511.467 881.979 510.72C878.992 509.867 876.059 509.44 873.179 509.44C868.699 509.44 864.805 510.347 861.499 512.16C858.299 513.867 855.632 516.16 853.499 519.04C851.472 521.92 849.925 525.12 848.859 528.64C847.899 532.16 847.419 535.68 847.419 539.2C847.419 543.147 848.005 546.933 849.179 550.56C850.352 554.187 852.059 557.44 854.299 560.32C856.539 563.093 859.259 565.28 862.459 566.88C865.765 568.48 869.445 569.28 873.499 569.28C876.379 569.28 879.312 568.853 882.299 568C885.285 567.04 888.005 565.547 890.459 563.52C892.912 561.493 894.779 558.773 896.059 555.36L921.499 570.56C919.259 576.107 915.525 580.853 910.299 584.8C905.072 588.747 899.152 591.787 892.539 593.92C885.925 595.947 879.365 596.96 872.859 596.96C864.432 596.96 856.699 595.307 849.659 592C842.725 588.587 836.699 584.107 831.579 578.56C826.565 572.907 822.672 566.613 819.899 559.68C817.125 552.64 815.739 545.493 815.739 538.24ZM982.204 596.96C973.137 596.96 965.35 595.467 958.844 592.48C952.337 589.493 947.004 585.387 942.844 580.16C938.79 574.933 935.804 568.96 933.884 562.24C931.964 555.413 931.004 548.267 931.004 540.8V482.4H962.204V540.8C962.204 544.533 962.577 548.107 963.324 551.52C964.07 554.933 965.244 557.973 966.844 560.64C968.444 563.307 970.47 565.44 972.924 567.04C975.484 568.533 978.577 569.28 982.204 569.28C985.937 569.28 989.084 568.533 991.644 567.04C994.204 565.44 996.23 563.307 997.724 560.64C999.324 557.867 1000.5 554.773 1001.24 551.36C1001.99 547.947 1002.36 544.427 1002.36 540.8V482.4H1033.56V540.8C1033.56 548.693 1032.5 556.053 1030.36 562.88C1028.34 569.707 1025.24 575.68 1021.08 580.8C1016.92 585.92 1011.59 589.92 1005.08 592.8C998.684 595.573 991.057 596.96 982.204 596.96ZM1148.15 566.88C1148.15 573.707 1146.28 579.253 1142.55 583.52C1138.92 587.787 1134.02 590.933 1127.83 592.96C1121.64 594.987 1114.82 596 1107.35 596H1051.51V482.4H1117.43C1122.76 482.4 1127.35 483.84 1131.19 486.72C1135.14 489.493 1138.12 493.12 1140.15 497.6C1142.28 502.08 1143.35 506.72 1143.35 511.52C1143.35 516.747 1141.96 521.813 1139.19 526.72C1136.52 531.627 1132.47 535.307 1127.03 537.76C1133.54 539.68 1138.66 543.04 1142.39 547.84C1146.23 552.64 1148.15 558.987 1148.15 566.88ZM1116.47 560.48C1116.47 558.56 1116.1 556.907 1115.35 555.52C1114.71 554.027 1113.8 552.853 1112.63 552C1111.46 551.147 1110.07 550.72 1108.47 550.72H1082.71V569.76H1107.35C1109.06 569.76 1110.6 569.387 1111.99 568.64C1113.38 567.893 1114.44 566.827 1115.19 565.44C1116.04 564.053 1116.47 562.4 1116.47 560.48ZM1082.71 508.96V526.4H1103.99C1105.38 526.4 1106.71 526.187 1107.99 525.76C1109.27 525.227 1110.34 524.32 1111.19 523.04C1112.04 521.76 1112.47 519.947 1112.47 517.6C1112.47 515.467 1112.1 513.813 1111.35 512.64C1110.71 511.36 1109.8 510.453 1108.63 509.92C1107.56 509.28 1106.34 508.96 1104.95 508.96H1082.71ZM1242.94 568.8V596H1161.98V482.4H1241.5V509.6H1193.18V525.6H1234.46V550.88H1193.18V568.8H1242.94ZM1326.25 519.52C1326.25 519.52 1325.34 518.987 1323.53 517.92C1321.71 516.853 1319.31 515.68 1316.33 514.4C1313.34 513.013 1310.09 511.787 1306.57 510.72C1303.05 509.653 1299.58 509.12 1296.17 509.12C1293.5 509.12 1291.31 509.547 1289.61 510.4C1287.9 511.253 1287.05 512.693 1287.05 514.72C1287.05 516.64 1287.9 518.187 1289.61 519.36C1291.31 520.533 1293.71 521.6 1296.81 522.56C1300.01 523.52 1303.79 524.693 1308.17 526.08C1315.21 528.213 1321.29 530.667 1326.41 533.44C1331.53 536.213 1335.47 539.787 1338.25 544.16C1341.02 548.427 1342.41 554.133 1342.41 561.28C1342.41 568.107 1341.18 573.867 1338.73 578.56C1336.27 583.147 1332.97 586.827 1328.81 589.6C1324.65 592.373 1320.01 594.4 1314.89 595.68C1309.77 596.853 1304.54 597.44 1299.21 597.44C1293.77 597.44 1288.06 596.907 1282.09 595.84C1276.22 594.667 1270.51 593.12 1264.97 591.2C1259.42 589.173 1254.35 586.827 1249.77 584.16L1263.21 556.8C1263.21 556.8 1264.27 557.44 1266.41 558.72C1268.54 560 1271.37 561.44 1274.89 563.04C1278.41 564.64 1282.3 566.08 1286.57 567.36C1290.94 568.64 1295.31 569.28 1299.69 569.28C1303.1 569.28 1305.45 568.853 1306.73 568C1308.11 567.04 1308.81 565.813 1308.81 564.32C1308.81 562.08 1307.63 560.373 1305.29 559.2C1302.94 557.92 1299.85 556.747 1296.01 555.68C1292.27 554.507 1288.11 553.173 1283.53 551.68C1276.91 549.44 1271.47 546.933 1267.21 544.16C1262.94 541.28 1259.79 537.92 1257.77 534.08C1255.74 530.133 1254.73 525.387 1254.73 519.84C1254.73 511.413 1256.7 504.373 1260.65 498.72C1264.59 493.067 1269.77 488.8 1276.17 485.92C1282.67 482.933 1289.66 481.44 1297.13 481.44C1302.67 481.44 1308.01 482.133 1313.13 483.52C1318.35 484.8 1323.21 486.4 1327.69 488.32C1332.27 490.24 1336.27 492.053 1339.69 493.76L1326.25 519.52ZM1444.68 509.6H1412.04V596H1380.84V509.6H1348.04V482.4H1444.68V509.6ZM1471.81 482.4H1506.69L1542.85 596H1511.17L1504.29 573.76H1474.05L1467.33 596H1435.49L1471.81 482.4ZM1499.33 552.96L1489.25 512.96L1478.69 552.96H1499.33ZM1552.29 596V482.4H1604.45C1610 482.4 1615.12 483.52 1619.81 485.76C1624.5 488 1628.56 491.04 1631.97 494.88C1635.38 498.613 1638 502.827 1639.81 507.52C1641.73 512.213 1642.69 516.96 1642.69 521.76C1642.69 526.133 1642.05 530.347 1640.77 534.4C1639.49 538.453 1637.62 542.187 1635.17 545.6C1632.72 548.907 1629.78 551.787 1626.37 554.24L1650.37 596H1616.13L1596.13 561.12H1583.49V596H1552.29ZM1583.49 533.92H1603.17C1604.45 533.92 1605.68 533.44 1606.85 532.48C1608.02 531.52 1608.98 530.133 1609.73 528.32C1610.58 526.507 1611.01 524.32 1611.01 521.76C1611.01 519.093 1610.53 516.907 1609.57 515.2C1608.72 513.387 1607.6 512 1606.21 511.04C1604.93 510.08 1603.65 509.6 1602.37 509.6H1583.49V533.92ZM1747.18 509.6H1714.54V596H1683.34V509.6H1650.54V482.4H1747.18V509.6Z" fill="white"/>
<path d="M1098.13 624.072C1097.74 623.624 1097.23 623.192 1096.59 622.776C1095.95 622.36 1095.23 621.992 1094.43 621.672C1093.63 621.32 1092.75 621.048 1091.79 620.856C1090.86 620.632 1089.89 620.52 1088.86 620.52C1086.24 620.52 1084.3 621.016 1083.06 622.008C1081.81 623 1081.18 624.36 1081.18 626.088C1081.18 627.304 1081.5 628.264 1082.14 628.968C1082.78 629.672 1083.76 630.248 1085.07 630.696C1086.42 631.144 1088.11 631.608 1090.16 632.088C1092.53 632.6 1094.58 633.224 1096.3 633.96C1098.03 634.696 1099.36 635.688 1100.29 636.936C1101.22 638.152 1101.68 639.784 1101.68 641.832C1101.68 643.464 1101.36 644.888 1100.72 646.104C1100.11 647.288 1099.25 648.28 1098.13 649.08C1097.01 649.848 1095.7 650.424 1094.19 650.808C1092.69 651.16 1091.06 651.336 1089.3 651.336C1087.57 651.336 1085.87 651.16 1084.21 650.808C1082.58 650.424 1081.02 649.88 1079.55 649.176C1078.08 648.472 1076.7 647.592 1075.42 646.536L1077.49 642.888C1078 643.432 1078.66 643.976 1079.46 644.52C1080.29 645.032 1081.22 645.512 1082.24 645.96C1083.3 646.408 1084.43 646.776 1085.65 647.064C1086.86 647.32 1088.11 647.448 1089.39 647.448C1091.82 647.448 1093.71 647.016 1095.06 646.152C1096.4 645.256 1097.07 643.96 1097.07 642.264C1097.07 640.984 1096.69 639.96 1095.92 639.192C1095.18 638.424 1094.08 637.784 1092.61 637.272C1091.14 636.76 1089.34 636.248 1087.23 635.736C1084.93 635.16 1082.99 634.536 1081.42 633.864C1079.86 633.16 1078.67 632.248 1077.87 631.128C1077.1 630.008 1076.72 628.552 1076.72 626.76C1076.72 624.584 1077.25 622.744 1078.3 621.24C1079.36 619.736 1080.82 618.6 1082.67 617.832C1084.53 617.064 1086.62 616.68 1088.96 616.68C1090.5 616.68 1091.92 616.84 1093.23 617.16C1094.58 617.48 1095.82 617.928 1096.98 618.504C1098.13 619.08 1099.18 619.768 1100.14 620.568L1098.13 624.072ZM1106.69 651V625.944H1110.91V651H1106.69ZM1106.69 621.24V615.96H1110.91V621.24H1106.69ZM1155.53 651H1151.3V636.984C1151.3 634.36 1150.87 632.424 1150.01 631.176C1149.18 629.928 1147.93 629.304 1146.26 629.304C1144.57 629.304 1143.03 629.928 1141.66 631.176C1140.28 632.392 1139.3 633.976 1138.73 635.928V651H1134.5V636.984C1134.5 634.328 1134.09 632.392 1133.26 631.176C1132.42 629.928 1131.18 629.304 1129.51 629.304C1127.85 629.304 1126.31 629.912 1124.9 631.128C1123.53 632.312 1122.55 633.896 1121.98 635.88V651H1117.75V625.944H1121.59V631.32C1122.62 629.464 1123.94 628.04 1125.58 627.048C1127.21 626.024 1129.05 625.512 1131.1 625.512C1133.18 625.512 1134.84 626.088 1136.09 627.24C1137.34 628.36 1138.1 629.816 1138.39 631.608C1139.51 629.624 1140.87 628.12 1142.47 627.096C1144.07 626.04 1145.9 625.512 1147.94 625.512C1149.38 625.512 1150.58 625.784 1151.54 626.328C1152.54 626.84 1153.32 627.576 1153.9 628.536C1154.47 629.464 1154.89 630.568 1155.14 631.848C1155.4 633.128 1155.53 634.52 1155.53 636.024V651ZM1175.58 651.48C1173.54 651.48 1171.71 650.968 1170.11 649.944C1168.51 648.92 1167.25 647.624 1166.32 646.056V661.224H1162.1V625.944H1165.84V630.648C1166.83 629.112 1168.13 627.88 1169.73 626.952C1171.33 625.992 1173.07 625.512 1174.96 625.512C1176.69 625.512 1178.27 625.864 1179.71 626.568C1181.15 627.272 1182.4 628.232 1183.46 629.448C1184.51 630.664 1185.33 632.056 1185.9 633.624C1186.51 635.16 1186.82 636.776 1186.82 638.472C1186.82 640.84 1186.34 643.016 1185.38 645C1184.45 646.984 1183.14 648.568 1181.44 649.752C1179.74 650.904 1177.79 651.48 1175.58 651.48ZM1174.29 647.832C1175.54 647.832 1176.66 647.576 1177.65 647.064C1178.67 646.52 1179.54 645.816 1180.24 644.952C1180.98 644.056 1181.54 643.048 1181.92 641.928C1182.3 640.808 1182.5 639.656 1182.5 638.472C1182.5 637.224 1182.27 636.04 1181.82 634.92C1181.41 633.8 1180.8 632.808 1180 631.944C1179.23 631.08 1178.32 630.408 1177.26 629.928C1176.24 629.416 1175.12 629.16 1173.9 629.16C1173.14 629.16 1172.34 629.304 1171.5 629.592C1170.7 629.88 1169.94 630.296 1169.2 630.84C1168.46 631.352 1167.84 631.944 1167.33 632.616C1166.82 633.288 1166.48 634.008 1166.32 634.776V641.928C1166.8 643.016 1167.44 644.008 1168.24 644.904C1169.04 645.8 1169.97 646.52 1171.02 647.064C1172.08 647.576 1173.17 647.832 1174.29 647.832ZM1192.1 615.96H1196.32V644.52C1196.32 645.896 1196.51 646.744 1196.9 647.064C1197.28 647.384 1197.75 647.544 1198.29 647.544C1198.96 647.544 1199.6 647.48 1200.21 647.352C1200.82 647.192 1201.33 647.032 1201.75 646.872L1202.42 650.328C1201.71 650.616 1200.88 650.856 1199.92 651.048C1198.96 651.24 1198.11 651.336 1197.38 651.336C1195.75 651.336 1194.45 650.872 1193.49 649.944C1192.56 649.016 1192.1 647.72 1192.1 646.056V615.96ZM1216.82 651.48C1214.94 651.48 1213.21 651.144 1211.64 650.472C1210.1 649.768 1208.76 648.824 1207.61 647.64C1206.49 646.424 1205.61 645.032 1204.97 643.464C1204.36 641.896 1204.06 640.232 1204.06 638.472C1204.06 636.104 1204.6 633.944 1205.69 631.992C1206.78 630.04 1208.28 628.472 1210.2 627.288C1212.15 626.104 1214.38 625.512 1216.87 625.512C1219.4 625.512 1221.59 626.12 1223.45 627.336C1225.34 628.52 1226.79 630.088 1227.82 632.04C1228.87 633.96 1229.4 636.04 1229.4 638.28C1229.4 638.6 1229.38 638.92 1229.35 639.24C1229.35 639.528 1229.34 639.752 1229.3 639.912H1208.52C1208.65 641.544 1209.1 643 1209.86 644.28C1210.66 645.528 1211.69 646.52 1212.94 647.256C1214.18 647.96 1215.53 648.312 1216.97 648.312C1218.5 648.312 1219.94 647.928 1221.29 647.16C1222.66 646.392 1223.61 645.384 1224.12 644.136L1227.77 645.144C1227.22 646.36 1226.41 647.448 1225.32 648.408C1224.26 649.368 1223 650.12 1221.53 650.664C1220.09 651.208 1218.52 651.48 1216.82 651.48ZM1208.38 636.984H1225.46C1225.34 635.352 1224.87 633.912 1224.07 632.664C1223.27 631.416 1222.25 630.44 1221 629.736C1219.75 629.032 1218.38 628.68 1216.87 628.68C1215.4 628.68 1214.04 629.032 1212.79 629.736C1211.54 630.44 1210.52 631.416 1209.72 632.664C1208.95 633.912 1208.5 635.352 1208.38 636.984ZM1234.24 654.888L1235.2 650.616H1233.76V645.624H1237.74V650.616L1236.3 654.888H1234.24ZM1269.23 651.48C1267.27 651.48 1265.5 651 1263.9 650.04C1262.3 649.08 1261.03 647.832 1260.11 646.296V651H1256.36V615.96H1260.59V630.936C1261.64 629.304 1262.94 627.992 1264.47 627C1266.01 626.008 1267.8 625.512 1269.85 625.512C1271.58 625.512 1273.13 625.88 1274.51 626.616C1275.88 627.32 1277.05 628.296 1278.01 629.544C1279 630.76 1279.75 632.152 1280.27 633.72C1280.81 635.256 1281.08 636.872 1281.08 638.568C1281.08 640.328 1280.78 641.992 1280.17 643.56C1279.59 645.096 1278.76 646.472 1277.67 647.688C1276.59 648.872 1275.32 649.8 1273.88 650.472C1272.47 651.144 1270.92 651.48 1269.23 651.48ZM1268.17 647.832C1269.42 647.832 1270.57 647.576 1271.63 647.064C1272.68 646.552 1273.59 645.864 1274.36 645C1275.13 644.136 1275.72 643.144 1276.14 642.024C1276.55 640.904 1276.76 639.752 1276.76 638.568C1276.76 636.936 1276.41 635.4 1275.71 633.96C1275.03 632.52 1274.07 631.368 1272.83 630.504C1271.61 629.608 1270.19 629.16 1268.55 629.16C1267.37 629.16 1266.27 629.432 1265.24 629.976C1264.22 630.52 1263.31 631.24 1262.51 632.136C1261.74 633 1261.1 633.96 1260.59 635.016V642.264C1260.75 643.064 1261.08 643.8 1261.59 644.472C1262.11 645.144 1262.73 645.736 1263.47 646.248C1264.2 646.728 1264.97 647.112 1265.77 647.4C1266.6 647.688 1267.4 647.832 1268.17 647.832ZM1286.03 640.968V625.944H1290.25V640.152C1290.25 642.712 1290.7 644.632 1291.6 645.912C1292.49 647.192 1293.82 647.832 1295.58 647.832C1296.73 647.832 1297.84 647.592 1298.89 647.112C1299.98 646.6 1300.96 645.88 1301.82 644.952C1302.68 644.024 1303.36 642.92 1303.84 641.64V625.944H1308.06V646.2C1308.06 646.712 1308.16 647.096 1308.35 647.352C1308.57 647.576 1308.92 647.704 1309.4 647.736V651C1308.92 651.064 1308.54 651.096 1308.25 651.096C1308 651.128 1307.74 651.144 1307.48 651.144C1306.68 651.144 1306 650.904 1305.42 650.424C1304.84 649.912 1304.54 649.288 1304.51 648.552L1304.41 645.624C1303.32 647.48 1301.85 648.92 1300 649.944C1298.17 650.968 1296.17 651.48 1294 651.48C1291.37 651.48 1289.39 650.6 1288.04 648.84C1286.7 647.048 1286.03 644.424 1286.03 640.968ZM1328.06 649.752C1327.7 649.912 1327.22 650.12 1326.62 650.376C1326.01 650.632 1325.3 650.856 1324.5 651.048C1323.7 651.24 1322.86 651.336 1321.96 651.336C1320.94 651.336 1319.99 651.16 1319.13 650.808C1318.26 650.424 1317.58 649.848 1317.06 649.08C1316.55 648.28 1316.3 647.288 1316.3 646.104V629.256H1312.89V625.944H1316.3V617.592H1320.52V625.944H1326.14V629.256H1320.52V644.808C1320.58 645.704 1320.89 646.376 1321.43 646.824C1321.98 647.24 1322.62 647.448 1323.35 647.448C1324.18 647.448 1324.95 647.304 1325.66 647.016C1326.36 646.728 1326.82 646.52 1327.05 646.392L1328.06 649.752ZM1374.14 625.944H1378.22L1367.57 651H1363.87L1359.02 639.192L1354.22 651H1350.53L1339.87 625.944H1343.9L1352.54 646.824L1356.58 636.552L1352.35 625.992H1356.05L1359.02 633.96L1362 625.992H1365.7L1361.52 636.552L1365.55 646.824L1374.14 625.944ZM1392.27 651.48C1390.39 651.48 1388.67 651.144 1387.14 650.472C1385.6 649.768 1384.27 648.824 1383.15 647.64C1382.03 646.424 1381.17 645.032 1380.56 643.464C1379.95 641.896 1379.65 640.248 1379.65 638.52C1379.65 636.76 1379.95 635.096 1380.56 633.528C1381.17 631.96 1382.03 630.584 1383.15 629.4C1384.27 628.184 1385.6 627.24 1387.14 626.568C1388.71 625.864 1390.42 625.512 1392.27 625.512C1394.16 625.512 1395.87 625.864 1397.41 626.568C1398.95 627.24 1400.27 628.184 1401.39 629.4C1402.55 630.584 1403.43 631.96 1404.03 633.528C1404.64 635.096 1404.95 636.76 1404.95 638.52C1404.95 640.248 1404.64 641.896 1404.03 643.464C1403.43 645.032 1402.56 646.424 1401.44 647.64C1400.32 648.824 1398.98 649.768 1397.41 650.472C1395.87 651.144 1394.16 651.48 1392.27 651.48ZM1383.97 638.568C1383.97 640.296 1384.34 641.864 1385.07 643.272C1385.84 644.68 1386.85 645.8 1388.1 646.632C1389.35 647.432 1390.74 647.832 1392.27 647.832C1393.81 647.832 1395.2 647.416 1396.45 646.584C1397.73 645.752 1398.74 644.632 1399.47 643.224C1400.24 641.784 1400.63 640.2 1400.63 638.472C1400.63 636.744 1400.24 635.176 1399.47 633.768C1398.74 632.36 1397.73 631.24 1396.45 630.408C1395.2 629.576 1393.81 629.16 1392.27 629.16C1390.74 629.16 1389.35 629.592 1388.1 630.456C1386.85 631.288 1385.84 632.408 1385.07 633.816C1384.34 635.224 1383.97 636.808 1383.97 638.568ZM1423.31 629.64C1421.2 629.672 1419.33 630.216 1417.7 631.272C1416.1 632.296 1414.96 633.72 1414.29 635.544V651H1410.06V625.944H1414V631.752C1414.86 630.024 1416 628.632 1417.41 627.576C1418.85 626.488 1420.35 625.88 1421.92 625.752C1422.24 625.752 1422.51 625.752 1422.74 625.752C1422.96 625.752 1423.15 625.768 1423.31 625.8V629.64ZM1445.17 651L1436.48 638.808L1431.73 643.272V651H1427.5V615.96H1431.73V638.856L1444.69 625.992H1449.25L1439.26 636.36L1449.73 651H1445.17ZM1461.97 651.48C1459.89 651.48 1457.94 651.144 1456.11 650.472C1454.29 649.768 1452.72 648.728 1451.41 647.352L1453.04 644.376C1454.48 645.72 1455.92 646.68 1457.36 647.256C1458.8 647.832 1460.27 648.12 1461.78 648.12C1463.5 648.12 1464.91 647.8 1466 647.16C1467.09 646.488 1467.63 645.512 1467.63 644.232C1467.63 643.304 1467.34 642.616 1466.77 642.168C1466.22 641.72 1465.44 641.352 1464.42 641.064C1463.39 640.744 1462.18 640.392 1460.77 640.008C1459.04 639.496 1457.58 638.952 1456.4 638.376C1455.22 637.8 1454.32 637.08 1453.71 636.216C1453.1 635.352 1452.8 634.264 1452.8 632.952C1452.8 631.352 1453.22 630.008 1454.05 628.92C1454.88 627.8 1456.02 626.952 1457.46 626.376C1458.93 625.8 1460.59 625.512 1462.45 625.512C1464.3 625.512 1465.98 625.8 1467.49 626.376C1468.99 626.952 1470.29 627.8 1471.38 628.92L1469.46 631.848C1468.46 630.824 1467.38 630.072 1466.19 629.592C1465.01 629.08 1463.68 628.824 1462.21 628.824C1461.34 628.824 1460.5 628.936 1459.66 629.16C1458.83 629.352 1458.14 629.72 1457.6 630.264C1457.06 630.776 1456.78 631.512 1456.78 632.472C1456.78 633.272 1456.99 633.912 1457.41 634.392C1457.86 634.84 1458.5 635.224 1459.33 635.544C1460.19 635.864 1461.23 636.216 1462.45 636.6C1464.34 637.144 1465.97 637.688 1467.34 638.232C1468.75 638.776 1469.84 639.48 1470.61 640.344C1471.38 641.208 1471.76 642.408 1471.76 643.944C1471.76 646.312 1470.86 648.168 1469.07 649.512C1467.28 650.824 1464.91 651.48 1461.97 651.48ZM1477.58 639.48V616.584H1481.81V639.48H1477.58ZM1477.58 651V645.048H1481.81V651H1477.58Z" fill="white" fill-opacity="0.5"/>
<path d="M2069.63 1021.9C2069.63 1019.12 2070.14 1016.41 2071.16 1013.77C2072.19 1011.08 2073.68 1008.65 2075.64 1006.47C2077.61 1004.3 2080 1002.57 2082.81 1001.29C2085.63 999.965 2088.83 999.304 2092.41 999.304C2096.68 999.304 2100.37 1000.22 2103.48 1002.06C2106.64 1003.89 2108.99 1006.28 2110.52 1009.22L2102.46 1014.86C2101.78 1013.23 2100.86 1011.98 2099.71 1011.08C2098.6 1010.18 2097.36 1009.57 2096 1009.22C2094.67 1008.84 2093.39 1008.65 2092.16 1008.65C2090.15 1008.65 2088.4 1009.05 2086.91 1009.86C2085.41 1010.63 2084.18 1011.68 2083.2 1013C2082.21 1014.32 2081.49 1015.79 2081.02 1017.42C2080.55 1019.04 2080.32 1020.66 2080.32 1022.28C2080.32 1024.07 2080.59 1025.8 2081.15 1027.46C2081.7 1029.13 2082.49 1030.6 2083.52 1031.88C2084.58 1033.16 2085.86 1034.18 2087.36 1034.95C2088.85 1035.68 2090.49 1036.04 2092.28 1036.04C2093.56 1036.04 2094.87 1035.83 2096.19 1035.4C2097.51 1034.97 2098.73 1034.31 2099.84 1033.42C2100.99 1032.48 2101.86 1031.26 2102.46 1029.77L2111.04 1034.82C2110.14 1037.04 2108.67 1038.94 2106.62 1040.52C2104.57 1042.1 2102.25 1043.31 2099.64 1044.17C2097.08 1044.98 2094.55 1045.38 2092.03 1045.38C2088.74 1045.38 2085.71 1044.72 2082.94 1043.4C2080.21 1042.03 2077.84 1040.24 2075.84 1038.02C2073.87 1035.76 2072.34 1033.25 2071.23 1030.47C2070.16 1027.66 2069.63 1024.8 2069.63 1021.9ZM2142.23 1045.38C2138.61 1045.38 2135.51 1044.79 2132.95 1043.59C2130.39 1042.35 2128.3 1040.69 2126.68 1038.6C2125.1 1036.47 2123.93 1034.06 2123.16 1031.37C2122.44 1028.64 2122.07 1025.78 2122.07 1022.79V999.56H2132.57V1022.79C2132.57 1024.5 2132.74 1026.16 2133.08 1027.78C2133.42 1029.36 2133.98 1030.77 2134.75 1032.01C2135.51 1033.25 2136.5 1034.23 2137.69 1034.95C2138.93 1035.68 2140.44 1036.04 2142.23 1036.04C2144.07 1036.04 2145.61 1035.68 2146.84 1034.95C2148.08 1034.18 2149.06 1033.18 2149.79 1031.94C2150.51 1030.66 2151.05 1029.23 2151.39 1027.66C2151.73 1026.08 2151.9 1024.46 2151.9 1022.79V999.56H2162.39V1022.79C2162.39 1025.95 2161.99 1028.89 2161.18 1031.62C2160.41 1034.35 2159.22 1036.77 2157.59 1038.86C2155.97 1040.9 2153.88 1042.5 2151.32 1043.66C2148.81 1044.81 2145.78 1045.38 2142.23 1045.38ZM2214.49 1033.35C2214.49 1035.95 2213.79 1038.13 2212.38 1039.88C2211.02 1041.59 2209.16 1042.87 2206.81 1043.72C2204.47 1044.57 2201.89 1045 2199.07 1045H2176.93V999.56H2202.21C2204.34 999.56 2206.17 1000.14 2207.71 1001.29C2209.29 1002.4 2210.48 1003.85 2211.29 1005.64C2212.15 1007.43 2212.57 1009.29 2212.57 1011.21C2212.57 1013.34 2212.02 1015.39 2210.91 1017.35C2209.8 1019.27 2208.18 1020.72 2206.05 1021.7C2208.65 1022.47 2210.7 1023.84 2212.19 1025.8C2213.73 1027.76 2214.49 1030.28 2214.49 1033.35ZM2203.81 1031.24C2203.81 1030.26 2203.61 1029.41 2203.23 1028.68C2202.85 1027.91 2202.33 1027.31 2201.69 1026.89C2201.1 1026.42 2200.37 1026.18 2199.52 1026.18H2187.42V1036.1H2199.07C2199.97 1036.1 2200.76 1035.89 2201.44 1035.46C2202.16 1035.04 2202.74 1034.46 2203.17 1033.74C2203.59 1033.01 2203.81 1032.18 2203.81 1031.24ZM2187.42 1008.52V1017.93H2197.73C2198.49 1017.93 2199.2 1017.76 2199.84 1017.42C2200.52 1017.07 2201.08 1016.56 2201.5 1015.88C2201.93 1015.15 2202.14 1014.26 2202.14 1013.19C2202.14 1012.17 2201.95 1011.31 2201.57 1010.63C2201.23 1009.95 2200.76 1009.44 2200.16 1009.1C2199.56 1008.71 2198.88 1008.52 2198.11 1008.52H2187.42ZM2259.01 1035.78V1045H2227.08V999.56H2258.44V1008.78H2237.57V1017.61H2255.49V1026.12H2237.57V1035.78H2259.01ZM2299.05 1012.87C2298.93 1012.66 2298.48 1012.34 2297.71 1011.91C2296.94 1011.44 2295.98 1010.95 2294.83 1010.44C2293.68 1009.93 2292.42 1009.48 2291.05 1009.1C2289.69 1008.71 2288.32 1008.52 2286.96 1008.52C2285.17 1008.52 2283.78 1008.84 2282.8 1009.48C2281.82 1010.08 2281.33 1011.02 2281.33 1012.3C2281.33 1013.32 2281.69 1014.13 2282.41 1014.73C2283.18 1015.33 2284.27 1015.86 2285.68 1016.33C2287.09 1016.75 2288.81 1017.27 2290.86 1017.86C2293.76 1018.63 2296.28 1019.57 2298.41 1020.68C2300.55 1021.75 2302.17 1023.13 2303.28 1024.84C2304.43 1026.55 2305.01 1028.81 2305.01 1031.62C2305.01 1034.18 2304.54 1036.36 2303.6 1038.15C2302.66 1039.9 2301.38 1041.33 2299.76 1042.44C2298.18 1043.51 2296.37 1044.3 2294.32 1044.81C2292.27 1045.28 2290.16 1045.51 2287.98 1045.51C2285.76 1045.51 2283.48 1045.3 2281.13 1044.87C2278.83 1044.4 2276.61 1043.76 2274.48 1042.95C2272.34 1042.1 2270.38 1041.07 2268.59 1039.88L2273.2 1030.73C2273.37 1030.94 2273.92 1031.35 2274.86 1031.94C2275.8 1032.5 2276.95 1033.1 2278.32 1033.74C2279.73 1034.33 2281.28 1034.87 2282.99 1035.34C2284.7 1035.81 2286.42 1036.04 2288.17 1036.04C2290.05 1036.04 2291.44 1035.74 2292.33 1035.14C2293.27 1034.55 2293.74 1033.71 2293.74 1032.65C2293.74 1031.5 2293.25 1030.6 2292.27 1029.96C2291.33 1029.32 2290.03 1028.74 2288.37 1028.23C2286.74 1027.72 2284.87 1027.14 2282.73 1026.5C2279.96 1025.65 2277.66 1024.69 2275.82 1023.62C2274.03 1022.56 2272.69 1021.26 2271.79 1019.72C2270.94 1018.18 2270.51 1016.26 2270.51 1013.96C2270.51 1010.76 2271.26 1008.07 2272.75 1005.9C2274.29 1003.68 2276.33 1002.01 2278.89 1000.9C2281.45 999.752 2284.25 999.176 2287.28 999.176C2289.41 999.176 2291.46 999.432 2293.42 999.944C2295.43 1000.46 2297.28 1001.1 2298.99 1001.86C2300.74 1002.63 2302.3 1003.4 2303.66 1004.17L2299.05 1012.87ZM2352.19 1008.78H2338.36V1045H2327.87V1008.78H2313.98V999.56H2352.19V1008.78ZM2383.23 1045.38C2379.61 1045.38 2376.51 1044.79 2373.95 1043.59C2371.39 1042.35 2369.3 1040.69 2367.68 1038.6C2366.1 1036.47 2364.93 1034.06 2364.16 1031.37C2363.44 1028.64 2363.07 1025.78 2363.07 1022.79V999.56H2373.57V1022.79C2373.57 1024.5 2373.74 1026.16 2374.08 1027.78C2374.42 1029.36 2374.98 1030.77 2375.75 1032.01C2376.51 1033.25 2377.5 1034.23 2378.69 1034.95C2379.93 1035.68 2381.44 1036.04 2383.23 1036.04C2385.07 1036.04 2386.61 1035.68 2387.84 1034.95C2389.08 1034.18 2390.06 1033.18 2390.79 1031.94C2391.51 1030.66 2392.05 1029.23 2392.39 1027.66C2392.73 1026.08 2392.9 1024.46 2392.9 1022.79V999.56H2403.39V1022.79C2403.39 1025.95 2402.99 1028.89 2402.18 1031.62C2401.41 1034.35 2400.22 1036.77 2398.59 1038.86C2396.97 1040.9 2394.88 1042.5 2392.32 1043.66C2389.81 1044.81 2386.78 1045.38 2383.23 1045.38ZM2417.93 1045V999.56H2434.89C2439.88 999.56 2444.04 1000.58 2447.37 1002.63C2450.74 1004.64 2453.28 1007.37 2454.98 1010.82C2456.69 1014.24 2457.54 1018.03 2457.54 1022.22C2457.54 1026.82 2456.6 1030.83 2454.73 1034.25C2452.85 1037.66 2450.2 1040.31 2446.79 1042.18C2443.42 1044.06 2439.45 1045 2434.89 1045H2417.93ZM2446.85 1022.22C2446.85 1019.57 2446.39 1017.25 2445.45 1015.24C2444.51 1013.19 2443.14 1011.61 2441.35 1010.5C2439.56 1009.35 2437.4 1008.78 2434.89 1008.78H2428.42V1035.78H2434.89C2437.45 1035.78 2439.6 1035.21 2441.35 1034.06C2443.14 1032.86 2444.51 1031.24 2445.45 1029.19C2446.39 1027.1 2446.85 1024.78 2446.85 1022.22ZM2470.14 1045V999.56H2480.64V1045H2470.14ZM2515.63 1045.38C2512.22 1045.38 2509.12 1044.74 2506.35 1043.46C2503.62 1042.14 2501.25 1040.39 2499.25 1038.22C2497.28 1036 2495.77 1033.52 2494.7 1030.79C2493.64 1028.02 2493.1 1025.16 2493.1 1022.22C2493.1 1019.19 2493.66 1016.31 2494.77 1013.58C2495.92 1010.85 2497.5 1008.41 2499.5 1006.28C2501.55 1004.1 2503.96 1002.4 2506.74 1001.16C2509.51 999.923 2512.54 999.304 2515.82 999.304C2519.19 999.304 2522.24 999.965 2524.98 1001.29C2527.75 1002.57 2530.12 1004.32 2532.08 1006.54C2534.08 1008.75 2535.62 1011.25 2536.69 1014.02C2537.75 1016.75 2538.29 1019.55 2538.29 1022.41C2538.29 1025.44 2537.73 1028.32 2536.62 1031.05C2535.51 1033.78 2533.94 1036.23 2531.89 1038.41C2529.84 1040.54 2527.43 1042.25 2524.66 1043.53C2521.92 1044.77 2518.92 1045.38 2515.63 1045.38ZM2503.79 1022.34C2503.79 1024.09 2504.05 1025.8 2504.56 1027.46C2505.07 1029.09 2505.82 1030.54 2506.8 1031.82C2507.82 1033.1 2509.08 1034.12 2510.58 1034.89C2512.07 1035.66 2513.78 1036.04 2515.7 1036.04C2517.7 1036.04 2519.45 1035.66 2520.94 1034.89C2522.44 1034.08 2523.67 1033.01 2524.66 1031.69C2525.64 1030.37 2526.36 1028.89 2526.83 1027.27C2527.34 1025.61 2527.6 1023.92 2527.6 1022.22C2527.6 1020.47 2527.34 1018.78 2526.83 1017.16C2526.32 1015.54 2525.55 1014.09 2524.53 1012.81C2523.5 1011.49 2522.24 1010.46 2520.75 1009.74C2519.26 1009.01 2517.57 1008.65 2515.7 1008.65C2513.69 1008.65 2511.94 1009.03 2510.45 1009.8C2509 1010.57 2507.76 1011.61 2506.74 1012.94C2505.75 1014.22 2505.01 1015.69 2504.5 1017.35C2504.03 1018.97 2503.79 1020.64 2503.79 1022.34Z" fill="white"/>
<defs>
<radialGradient id="paint0_radial_424_8" cx="0" cy="0" r="1" gradientUnits="userSpaceOnUse" gradientTransform="translate(2316.79 81.8181) rotate(155.273) scale(1913.75 2111.73)">
<stop stop-color="#7BB82E"/>
<stop offset="1" stop-opacity="0"/>
</radialGradient>
<radialGradient id="paint1_radial_424_8" cx="0" cy="0" r="1" gradientUnits="userSpaceOnUse" gradientTransform="translate(235.569 976.255) rotate(-18.0807) scale(1277.01 1362.77)">
<stop stop-color="#82CB25"/>
<stop offset="1" stop-opacity="0"/>
</radialGradient>
<radialGradient id="paint2_radial_424_8" cx="0" cy="0" r="1" gradientUnits="userSpaceOnUse" gradientTransform="translate(150.148 81.1636) rotate(32.5166) scale(1129.99 1826.11)">
<stop stop-color="#91FF04"/>
<stop offset="1" stop-opacity="0"/>
</radialGradient>
</defs>
</svg>
